<?xml version="1.0" standalone="no"?>
<!DOCTYPE svg PUBLIC "-//W3C//DTD SVG 20010904//EN"
 "http://www.w3.org/TR/2001/REC-SVG-20010904/DTD/svg10.dtd">
<svg version="1.0" xmlns="http://www.w3.org/2000/svg"
 width="398.000000pt" height="398.000000pt" viewBox="0 0 398.000000 398.000000"
 preserveAspectRatio="xMidYMid meet">
<metadata>
Created by potrace 1.11, written by Peter Selinger 2001-2013
</metadata>
<g transform="translate(0.000000,398.000000) scale(0.100000,-0.100000)"
fill="#000000" stroke="none">
<path d="M1911 3848 c-10 -24 -21 -51 -25 -61 -5 -16 -8 -17 -21 -3 -8 8 -15
19 -15 24 0 28 -31 13 -87 -41 l-63 -61 0 37 0 38 -27 -20 c-16 -11 -41 -32
-58 -46 -41 -37 -111 -85 -123 -85 -6 0 -12 -3 -14 -7 -1 -5 -23 -21 -48 -37
-25 -16 -49 -35 -53 -43 -4 -7 -15 -13 -22 -13 -8 0 -15 -4 -15 -10 0 -5 -13
-10 -29 -10 -16 0 -34 -7 -41 -15 -7 -8 -15 -13 -19 -11 -3 2 -35 -22 -71 -55
-36 -32 -74 -59 -85 -59 -22 0 -39 -20 -127 -142 -32 -44 -58 -89 -58 -99 0
-11 -4 -19 -8 -19 -4 0 -9 -12 -10 -27 -1 -16 -4 -40 -6 -56 -2 -15 0 -30 4
-32 9 -6 8 -25 -3 -42 -5 -7 -5 -17 -2 -23 3 -5 1 -10 -4 -10 -6 0 -11 -8 -11
-18 0 -10 -3 -22 -7 -26 -4 -3 -8 -12 -9 -19 -1 -7 -7 -31 -13 -55 -7 -23 -9
-47 -6 -52 3 -6 2 -10 -2 -10 -11 0 -17 -86 -17 -215 1 -88 9 -230 14 -230 2
0 4 -15 14 -90 3 -22 7 -49 8 -59 2 -15 -5 -21 -36 -28 -47 -10 -93 -58 -103
-108 -4 -19 -6 -38 -5 -42 1 -5 -1 -8 -5 -8 -9 0 -8 -65 1 -147 7 -65 61 -213
78 -213 5 0 8 -5 8 -10 0 -24 105 -128 137 -136 13 -4 23 -10 23 -15 0 -5 3
-8 8 -8 31 5 39 -8 53 -81 5 -25 11 -58 15 -75 3 -16 6 -39 7 -50 1 -11 4 -22
7 -25 6 -6 30 -88 32 -107 1 -7 5 -13 10 -13 4 0 7 -3 6 -8 -6 -25 88 -169
152 -234 38 -38 45 -50 34 -59 -7 -6 -18 -8 -24 -4 -5 3 -10 1 -10 -5 0 -7 -5
-10 -12 -8 -7 3 -20 -3 -30 -11 -10 -9 -23 -17 -28 -17 -6 -1 -15 -2 -20 -3
-12 -1 -67 -52 -69 -63 0 -5 -2 -9 -2 -10 -6 -13 -4 -116 3 -124 10 -14 1 -40
-15 -42 -129 -14 -151 -20 -217 -54 -88 -47 -90 -55 -17 -92 34 -18 71 -38 82
-44 46 -26 220 -104 240 -107 6 0 24 -7 40 -14 17 -7 38 -14 48 -16 9 -2 23
-7 30 -12 6 -4 17 -8 22 -8 13 -1 65 -15 85 -22 8 -3 26 -7 40 -9 14 -1 36 -7
50 -12 14 -5 35 -8 47 -7 12 1 25 -5 28 -13 4 -11 9 -12 16 -5 7 7 22 8 42 3
18 -5 46 -10 62 -12 17 -2 33 -7 37 -13 5 -6 8 -5 8 3 0 7 5 10 11 6 6 -4 24
-8 40 -9 26 -2 29 1 30 29 l1 31 7 -30 c5 -25 12 -30 36 -32 46 -3 183 -3 255
0 59 3 65 5 64 24 -1 12 4 24 10 26 8 3 11 -5 8 -25 -3 -21 -1 -29 6 -24 6 4
28 9 49 12 92 12 202 32 212 39 4 2 26 6 51 10 24 4 53 11 63 17 10 5 21 7 24
4 4 -3 12 -1 20 5 7 6 13 8 13 4 0 -4 7 -2 15 5 8 6 19 9 25 5 5 -3 10 -1 10
4 0 6 11 11 24 11 13 0 26 3 28 8 2 4 28 15 58 26 76 25 144 56 152 70 4 6 8
7 8 2 0 -4 11 -1 25 8 14 9 25 14 25 11 0 -3 19 7 43 23 23 16 52 32 64 36 11
4 27 13 33 21 17 20 3 35 -57 65 -26 13 -51 28 -55 34 -5 7 -8 7 -8 -2 0 -9
-5 -10 -18 -3 -15 8 -48 14 -137 24 -11 2 -19 8 -18 14 12 60 10 132 -4 161
-16 34 -66 76 -77 65 -3 -3 -6 -2 -6 4 0 5 -19 16 -42 23 -70 22 -71 26 -20
80 70 74 77 83 108 141 16 30 32 56 37 57 4 2 5 7 2 12 -3 5 0 14 7 22 7 7 14
20 16 27 2 8 10 40 18 70 22 80 31 127 40 186 1 11 3 22 5 25 1 3 2 12 3 20 1
8 24 26 51 40 28 13 66 39 85 57 19 18 38 33 43 33 4 0 7 7 7 15 0 8 4 15 8
15 17 0 93 168 97 215 2 17 4 30 5 30 2 0 4 23 5 50 2 28 4 52 5 55 1 3 1 10
0 15 -1 6 -4 25 -7 44 -7 62 -57 138 -94 145 -13 3 -24 5 -24 6 0 1 -8 3 -17
5 -10 2 -18 -2 -18 -8 0 -7 -4 -6 -9 2 -9 13 -8 31 3 96 2 11 7 47 11 80 3 33
9 74 12 90 7 40 9 326 2 330 -3 2 -6 23 -8 47 -1 23 -5 45 -9 48 -4 3 -8 19
-10 35 -2 17 -8 34 -13 40 -5 5 -9 16 -9 25 0 8 -17 47 -36 85 -31 60 -41 94
-46 163 -1 6 -5 12 -10 12 -4 0 -8 7 -8 17 0 30 -60 110 -131 174 -89 79 -107
98 -126 127 -18 26 -33 29 -33 6 0 -12 -10 -9 -50 13 -27 15 -50 31 -50 36 0
4 -4 7 -9 7 -12 0 -114 62 -123 75 -4 5 -8 6 -8 2 0 -4 -12 4 -27 18 -15 14
-34 25 -41 25 -7 0 -11 4 -8 8 3 5 -1 9 -9 9 -8 0 -13 -3 -11 -6 2 -3 1 -14
-3 -24 -6 -17 -8 -17 -33 2 -14 12 -30 21 -36 21 -5 0 -17 9 -27 20 -10 11
-21 18 -25 15 -4 -2 -16 4 -27 14 -33 31 -103 72 -113 66 -8 -5 -21 7 -78 73
-11 12 -22 22 -26 22 -4 0 -15 -19 -25 -42z m824 -1028 c3 -5 -1 -10 -10 -10
-9 0 -13 5 -10 10 3 6 8 10 10 10 2 0 7 -4 10 -10z m35 -67 c0 -7 -5 -13 -12
-13 -6 0 -9 3 -5 6 3 3 1 18 -4 33 -9 24 -8 25 6 7 8 -11 15 -26 15 -33z
m-490 -408 c10 6 7 -21 -4 -32 -4 -4 -6 -1 -4 7 2 10 -4 15 -19 14 -13 -1 -20
3 -17 7 3 5 10 7 15 4 5 -4 9 0 10 7 0 10 2 10 6 0 2 -6 8 -10 13 -7z"/>
</g>
</svg>
